# xmcd
#
# Track frame offsets: 
#        150
#        33215
#        52172
#        77737
#
# Disc length: 1234 seconds
#
# Revision: 1
# Processed by: cddbd v1.5.2PL0 Copyright (c) Steve Scherf et al.
# Submitted via: ExactAudioCopy v0.99pb5
#
DISCID=2a04d004
DTITLE=Catherine Wheel - Black Metallic (Promo Single)
DYEAR=1992
DGENRE=Alternative
TTITLE0=Black Metallic
TTITLE1=Black Metallic (UK Edit)
TTITLE2=Black Metallic (KROQ Edit)
TTITLE3=Let Me Down Again (Non-Album Track)
EXTD=
EXTT0=
EXTT1=
EXTT2=
EXTT3=
PLAYORDER=
